<?xml version="1.0" ?><!DOCTYPE svg  PUBLIC '-//W3C//DTD SVG 1.1//EN'  'http://www.w3.org/Graphics/SVG/1.1/DTD/svg11.dtd'><svg height="20px" id="Capa_1" style="enable-background:new 0 0 92 92;" version="1.1" viewBox="0 0 92 92" width="20px" xml:space="preserve" xmlns="http://www.w3.org/2000/svg" xmlns:xlink="http://www.w3.org/1999/xlink"><g><path d="M45.998,0C20.594,0,0,20.596,0,46c0,25.406,20.594,46,45.998,46C71.404,92,92,71.406,92,46C92,20.596,71.404,0,45.998,0z    M45.998,82C26.117,82,10,65.883,10,46s16.117-36,35.998-36C65.883,10,82,26.117,82,46S65.883,82,45.998,82z M55,26.75H37v20.451   H25.75L46,66.25l20.25-19.049H55V26.75z"/></g><g/><g/><g/><g/><g/><g/><g/><g/><g/><g/><g/><g/><g/><g/><g/></svg>